{"title":"Ratatouille In HINDI (Awesome movie)","uid":4998960,"size":671959040,"categoryP":"video","categoryS":"movies","magnet":"?xt=urn:btih:203b205d43ce2f733a89eb8d156d269ee9dab8d7&amp;dn=Ratatouille+In+HINDI+%28Awesome+movie%29&amp;tr=udp%3A%2F%2Ftracker.openbittorrent.com%3A80&amp;tr=udp%3A%2F%2Fopen.demonii.com%3A1337&amp;tr=udp%3A%2F%2Ftracker.coppersurfer.tk%3A6969&amp;tr=udp%3A%2F%2Fexodus.desync.com%3A6969","seeders":0,"leechers":1,"uploader":"pain_here2007","files":1,"time":1247423949,"description":"Another upload for owr HINDI friends.\n\nAwards:  Won Oscar. Another 43 wins &amp; 20 nominations \n\nImdb Rating:  8.2/10\n\nGeneral\nFormat                           : AVI\nFormat/Info                      : Audio Video Interleave\nFile size                        : 682 MiB\nDuration                         : 1h 50mn\nOverall bit rate                 : 864 Kbps\n\nVideo\nID                               : 0\nFormat                           : MPEG-4 Visual\nFormat profile                   : Advanced Simple@L5\nFormat settings, BVOP            : Yes\nFormat settings, QPel            : No\nFormat settings, GMC             : No warppoints\nFormat settings, Matrix          : Default (H.263)\nMuxing mode                      : Packed bitstream\nCodec ID                         : XVID\nCodec ID/Hint                    : XviD\nDuration                         : 1h 50mn\nBit rate                         : 660 Kbps\nWidth                            : 720 pixels\nHeight                           : 480 pixels\nDisplay aspect ratio             : 1.500\nFrame rate                       : 29.970 fps\nStandard                         : NTSC\nResolution                       : 8 bits\nColorimetry                      : 4:2:0\nScan type                        : Progressive\nBits/(Pixel*Frame)               : 0.064\nStream size                      : 521 MiB (76%)\nWriting library                  : XviD 1.2.0.dev45 (UTC 2006-07-10)\n\nAudio\nID                               : 1\nFormat                           : MPEG Audio\nFormat version                   : Version 1\nFormat profile                   : Layer 3\nCodec ID                         : 55\nCodec ID/Hint                    : MP3\nDuration                         : 1h 50mn\nBit rate mode                    : Constant\nBit rate                         : 192 Kbps\nChannel(s)                       : 2 channels\nSampling rate                    : 44.1 KHz\nVideo delay                      : 26ms\nStream size                      : 152 MiB (22%)\nAlignment                        : Split accross interleaves\nInterleave, duration             : 33 ms (1.00 video frame)\nTitle                            : Audio Stream\nWriting library                  : LAME3.92\n\n\n\n\nWrite your comments on quality of this movie.\n\n\nPlease seed guys i will not reseed.\n\n\nTorrent uploaded by ASHISH THE GREAT.\n\nOther uploaded torrents by me\n\n1.http://thepiratebay.se/torrent/4988511/Death_of_Hinduism(Should_read_by_every_HINDU)\n\n2.http://thepiratebay.se/torrent/4888474/The_Incredibles_in_HINDI_(Hum_hain_lajawab)\n\n3.http://thepiratebay.se/torrent/4886918/Transformers_in_HINDI\n\n\nEnjoy bhai bandhuo\n\n\n","torrent":{"xt":"urn:btih:203b205d43ce2f733a89eb8d156d269ee9dab8d7","amp;dn":"Ratatouille+In+HINDI+%28Awesome+movie%29","amp;tr":["udp%3A%2F%2Ftracker.openbittorrent.com%3A80","udp%3A%2F%2Fopen.demonii.com%3A1337","udp%3A%2F%2Ftracker.coppersurfer.tk%3A6969","udp%3A%2F%2Fexodus.desync.com%3A6969"],"infoHash":"203b205d43ce2f733a89eb8d156d269ee9dab8d7","infoHashBuffer":{"type":"Buffer","data":[32,59,32,93,67,206,47,115,58,137,235,141,21,109,38,158,233,218,184,215]},"announce":[],"urlList":[]}}